<svg xmlns="http://www.w3.org/2000/svg" width="256" height="257" viewBox="0 0 256 257" preserveAspectRatio="xMidYMid">
  <defs>
    <linearGradient id="a" x1="-.828%" x2="57.636%" y1="7.652%" y2="78.411%">
      <stop offset="0%" stop-color="#41d1ff"/>
      <stop offset="100%" stop-color="#bd34fe"/>
    </linearGradient>
    <linearGradient id="b" x1="43.376%" x2="50.316%" y1="2.242%" y2="89.03%">
      <stop offset="0%" stop-color="#ffea83"/>
      <stop offset="8.333%" stop-color="#ffdd35"/>
      <stop offset="100%" stop-color="#ffa800"/>
    </linearGradient>
  </defs>
  <path fill="url(#a)" d="M255.153 37.938L134.897 252.976c-3.712 6.742-13.458 6.757-17.19.027L.875 37.941c-3.966-7.003 2.579-15.49 10.468-13.988l116.49 21.79a10 10 0 0 0 3.665-.006l113.125-21.785c7.874-1.516 14.44 6.465 10.51 13.963z"/>
  <path fill="url(#b)" d="M185.432.063l-80.06 15.474a6 6 0 0 0-4.844 5.09l-7.075 86.601a6 6 0 0 0 7.327 6.292l22.764-4.487c4.318-.852 8.205 2.761 7.28 7.033l-6.757 31.233c-.957 4.428 3.37 8.245 7.678 6.773l14.053-4.85c4.314-1.486 8.764 2.252 7.543 6.7l-10.662 38.736c-1.337 4.859 3.763 8.69 7.94 6.274l1.461-.836 65.471-140.905c2.561-5.509-2.239-11.667-8.352-10.47l-23.313 4.571c-4.334.85-8.236-2.85-7.235-7.191l14.289-62.256c1.164-5.07-3.408-9.448-8.383-8.35z"/>
</svg>
